<?xml version="1.0" encoding="utf-8"?>
<!-- Generator: Adobe Illustrator 24.1.2, SVG Export Plug-In . SVG Version: 6.00 Build 0)  -->
<svg version="1.1" id="Layer_1" xmlns="http://www.w3.org/2000/svg" xmlns:xlink="http://www.w3.org/1999/xlink" x="0px" y="0px"
	 viewBox="0 0 1364.1 282.3" style="enable-background:new 0 0 1364.1 282.3;" xml:space="preserve">
<g>
	<g>
		<path d="M392.3,249.8c-17.5,20.8-46.1,32.3-74,32.3c-53.9,0-94.4-37.2-94.4-93.7c0-50.2,34.2-94,87.7-94c49.8,0,85.1,42,85.1,92.2
			c0,4.8-0.4,9.7-1.1,13.8H270.7c2.6,25.3,23,42.7,48.7,42.7c20.4,0,36.8-11.5,45.3-20.8L392.3,249.8z M347.3,165
			c-1.5-16-16-31.6-35.7-31.6c-20.1,0-36.4,15.2-38.7,31.6H347.3z"/>
		<path d="M468.1,278.4V98.1h46.5v14.5c13.8-11.2,30.9-18.2,50.9-18.2c24.9,0,47.6,11.2,62.4,29c11.9,14.1,18.6,32.3,18.6,63.2v91.8
			h-48.3v-95.5c0-17.8-4.1-27.1-10.8-33.8c-6.3-6.3-16-10-27.1-10c-20.4,0-37.2,13-43.9,22.3v117.1L468.1,278.4L468.1,278.4z"/>
		<path d="M892.5,241.6c-21.2,28.2-47.9,40.5-81.8,40.5c-55.7,0-96.6-41.6-96.6-93.7c0-52.4,42-94,97-94c31.2,0,59.1,14.5,75.8,36
			l-34.2,30.1c-9.7-12.6-24.2-21.5-41.6-21.5c-27.9,0-48.7,21.9-48.7,49.4c0,28.2,20.4,49.1,49.8,49.1c19.7,0,35.3-11.9,43.1-23.8
			L892.5,241.6z"/>
		<path d="M1268.2,94.4c54.6,0,95.9,42,95.9,94s-41.3,93.7-95.9,93.7s-95.9-41.6-95.9-93.7S1213.6,94.4,1268.2,94.4z M1268.2,237.5
			c28.2,0,47.6-21.9,47.6-49.1c0-27.1-19.3-49.4-47.6-49.4s-47.6,22.3-47.6,49.4C1220.7,215.6,1240,237.5,1268.2,237.5z"/>
		<path d="M223.8,0c17.5,0,31.6,13.4,31.6,30.8s-14.1,30.9-31.6,30.9s-31.6-13.4-31.6-30.9S206.3,0,223.8,0z"/>
		<path d="M118.2,218c-8.3-6.5-15.6-12.6-22-18.4l70-70l-30.3-30.2l-69.8,69.7c-15-17.9-22.9-33.6-22.9-45.4V2H0v272.3h42.9v-66.9
			c13.2,14.2,29.5,29,48.8,44.3c23.8,18.8,50.7,29.5,50.9,29.5l2.9,1.1l14.7-36.7l1.6-3.2l-3.4-0.9
			C158.2,241.3,136.7,232.6,118.2,218z"/>
		<path d="M1070.2,218c-8.3-6.5-15.6-12.6-22-18.4l70-70L1088,99.3l-69.8,69.7c-15-17.9-22.9-33.6-22.9-45.4L994.9,2H952v272.3h42.9
			v-66.9c13.2,14.2,29.5,29,48.8,44.3c23.8,18.8,50.7,29.5,50.9,29.5l2.9,1.1l14.7-36.7l1.6-3.2l-3.4-0.9
			C1110.2,241.3,1088.7,232.6,1070.2,218z"/>
	</g>
</g>
</svg>
